<svg height="512" viewBox="0 0 512 512" width="512" xmlns="http://www.w3.org/2000/svg"><g id="Flat"><path d="m320 272h.00007a117.50769 117.50769 0 0 1 88.893 87.79561l5.69516 24.20439-38.58823 48-56 32h-120l-72-40v-152z" fill="#8ed0eb"/><path d="m240 248v24l40 24 40-24v-24z" fill="#f8d2b3"/><path d="m320 248h-100a60 60 0 0 1 -60-60v-76l40-40h120z" fill="#f8d2b3"/><path d="m304 120h16v152h-16z" fill="#f6c598"/><path d="m241.57764 228.15527-7.15528-14.31054 58-29a7.99583 7.99583 0 0 1 3.57764-.84473h8v-32h-13.78418l-64.12939 38.47754-8.23145-13.7207 66.0293-39.61719a8.00733 8.00733 0 0 1 4.11572-1.13965h24a8.00008 8.00008 0 0 1 8 8v48a8.00008 8.00008 0 0 1 -8 8h-14.11133z" fill="#8ed0eb"/><path d="m336 112a87.59715 87.59715 0 0 1 -18.29 53.71l-21.71-21.71a96.5576 96.5576 0 0 0 -28.28-68.28l-3.72-3.72a135.16992 135.16992 0 0 0 -95.6 39.6001l-8.4 8.3999v-8a88 88 0 0 1 176 0z" fill="#262d43"/><path d="m248 248 16-40-16-40-56-8-32 8v20a60 60 0 0 0 60 60z" fill="#349d66"/><circle cx="184" cy="136" fill="#262d43" r="8"/><circle cx="224" cy="136" fill="#262d43" r="8"/><path d="m288 144 2.63344-5.26688a19.41638 19.41638 0 0 1 17.36656-10.73312 19.41638 19.41638 0 0 1 17.36655 10.73312 24.94431 24.94431 0 0 1 2.63345 11.15542 42.83266 42.83266 0 0 1 -4.522 19.1554l-7.90031 15.80064a12.94427 12.94427 0 0 1 -11.57769 7.15542 12.94427 12.94427 0 0 1 -11.5777-7.15541l-4.4223-8.84459z" fill="#f8d2b3"/><path d="m240 248h48v16h-48z" fill="#f6c598"/><path d="m168 448-40-16-16-40h56z" fill="#37a2c7"/><path d="m335.67993 104.5q.31512 3.705.32007 7.5a88.00341 88.00341 0 0 1 -3.96 26.16992 166.80567 166.80567 0 0 1 30.8999 20.26l-236.5099 236.51002a168.02626 168.02626 0 0 1 33.57-244.83008v-37.59986a199.932 199.932 0 0 0 -104 175.49c0 110.46 89.54 200 200 200s200-89.54 200-200a200.04489 200.04489 0 0 0 -120.32007-183.5zm-79.67993 351.5a167.277 167.277 0 0 1 -106.94-38.42993l236.51007-236.51a168.0019 168.0019 0 0 1 -129.57007 274.93993z" fill="#e84042"/><path d="m216 208-40 80-24 8-24 48v48h-33.19a40.2871 40.2871 0 0 1 -34.8-60.59009l43.99-75.40991-8-32 8-16h33.14l22.86-32z" fill="#f8d2b3"/><path d="m137.14 208-17.14 24-13.02-9.3 10.5-14.7z" fill="#f6c598"/></g></svg>