<svg id="Capa_1" enable-background="new 0 0 512 512" height="512" viewBox="0 0 512 512" width="512" xmlns="http://www.w3.org/2000/svg"><g><path d="m213.667 156.903h-55l14.753-35.621v-113.024c0-4.561 3.697-8.258 8.258-8.258h16.516c4.561 0 8.258 3.697 8.258 8.258v113.024z" fill="#db4655"/><path d="m363.274 361.654c-16.575-167.854-81.161-241.014-105.651-263.119-5.564-5.022-12.857-7.697-20.353-7.697h-.083c-5.132 0-9.97 1.246-14.223 3.449l-13.464 26.995v225.556c0 18.243 11.74 28.161 29.984 28.161h107.178c9.869.001 17.572-3.615 16.612-13.345z" fill="#ff8086"/><path d="m142.685 90.839h-.083c-2.895 0-5.759.399-8.506 1.178 0 0-7.931 5.651-11.346 8.734-24.49 22.105-81.842 93.05-98.417 260.904-.96 9.729-.993 12.345 8.876 12.345h107.178l28.613-10.645c2.811-4.859 4.419-10.5 4.419-16.516v-225.557c0-16.813-13.76-30.443-30.734-30.443z" fill="#ff8086"/><path d="m239.484 363.355c-9.122 0-16.516-7.395-16.516-16.516v-161.742l35.452 35.452c1.613 1.613 3.726 2.419 5.839 2.419s4.226-.806 5.839-2.419c3.226-3.226 3.226-8.452 0-11.677l-47.129-47.129v-67.446c-9.776 5.096-16.516 15.283-16.516 26.985v25.539c-12.042-6.957-27.607-5.746-38.452 3.909-.484.431-.96.871-1.419 1.334l-56.806 56.807c-3.226 3.226-3.226 8.452 0 11.677s8.452 3.226 11.677 0l56.806-56.806.718-.673c6.516-5.799 16.46-5.504 22.637.673l4.839 4.839v178.258c0 18.243 14.789 33.032 33.032 33.032h107.178c9.283 0 16.552-7.527 16.596-16.516z" fill="#e5646e"/><path d="m55.23 363.355c-9.869 0-17.573-8.487-16.612-18.217 14.601-147.869 66.592-222.393 95.478-253.121-4.298 1.247-8.479 3.478-11.848 6.519-24.49 22.104-89.076 95.264-105.651 263.118-.961 9.73 6.742 18.217 16.612 18.217h107.178c12.196 0 22.891-6.684 28.613-16.516z" fill="#e5646e"/><g><path d="m495.484 404.645c0-59.29-48.064-107.355-107.355-107.355-26.149 0-50.114 9.349-68.736 24.886-23.602 19.693-35.434 49.327-35.434 82.468 0 59.29 44.879 103.192 104.17 103.192 33.151 0 62.793-10.863 82.485-34.476 15.528-18.618 24.87-42.575 24.87-68.715z" fill="#faf5dc"/><path d="m322.064 396.387h132.129v16.516h-132.129z" fill="#ffd064" transform="matrix(-.707 .707 -.707 -.707 948.705 416.324)"/><circle cx="434.844" cy="357.93" fill="#ffe07d" r="8.258"/><circle cx="341.414" cy="451.36" fill="#ffe07d" r="8.258"/><path d="m322.064 396.387h132.129v16.516h-132.129z" fill="#ffd064" transform="matrix(.707 .707 -.707 .707 399.808 -155.931)"/><circle cx="341.414" cy="357.93" fill="#ffe07d" r="8.258"/><circle cx="434.844" cy="451.36" fill="#ffe07d" r="8.258"/><path d="m322.064 396.387h132.129v16.516h-132.129z" fill="#ffd064" transform="matrix(0 1 -1 0 792.774 16.516)"/><circle cx="388.129" cy="338.581" fill="#ffe07d" r="8.258"/><circle cx="388.129" cy="470.71" fill="#ffe07d" r="8.258"/><path d="m322.064 396.387h132.129v16.516h-132.129z" fill="#ffd064"/><path d="m429.419 404.645c0-22.804-18.486-41.29-41.29-41.29-8.225 0-15.888 2.405-22.325 6.55-11.41 7.347-15.754 20.161-15.754 34.741 0 22.804 15.275 38.667 38.079 38.667 14.598 0 27.427-4.953 34.769-16.387 4.127-6.428 6.521-14.075 6.521-22.281z" fill="#ff8086"/><path d="m400.516 433.548c-22.804 0-41.29-18.486-41.29-41.29 0-8.226 2.433-15.916 6.579-22.354-11.408 7.348-18.966 20.163-18.966 34.741 0 22.804 18.486 41.29 41.29 41.29 14.578 0 27.421-7.602 34.769-19.01-6.437 4.147-14.156 6.623-22.382 6.623z" fill="#e5646e"/><g fill="#ffe07d"><path d="m402.234 405.677c-4.565 0-8.29-3.698-8.29-8.258s3.653-8.258 8.218-8.258h.073c4.565 0 8.258 3.698 8.258 8.258s-3.695 8.258-8.259 8.258z"/><path d="m388.121 426.839c-4.565 0-8.29-3.698-8.29-8.258s3.661-8.258 8.226-8.258h.065c4.565 0 8.258 3.698 8.258 8.258s-3.695 8.258-8.259 8.258z"/><path d="m374.016 405.677c-4.565 0-8.298-3.698-8.298-8.258s3.661-8.258 8.226-8.258h.073c4.565 0 8.258 3.698 8.258 8.258s-3.694 8.258-8.259 8.258z"/><circle cx="322.064" cy="404.645" r="8.258"/><circle cx="454.193" cy="404.645" r="8.258"/></g><path d="m401.893 498.236c-59.291 0-107.355-48.065-107.355-107.355 0-26.141 9.327-50.086 24.856-68.705-23.612 19.693-38.619 49.319-38.619 82.468 0 59.29 48.065 107.355 107.355 107.355 33.15 0 62.792-15.027 82.485-38.639-18.62 15.529-42.582 24.876-68.722 24.876z" fill="#f5ebcd"/></g></g></svg>