<svg id="Capa_1" enable-background="new 0 0 64 64" height="512" viewBox="0 0 64 64" width="512" xmlns="http://www.w3.org/2000/svg"><g><circle cx="54" cy="30" fill="#57a4ff" r="3"/><path d="m30 33h4v-3.32-5.68h-4z" fill="#2488ff"/><path d="m54 44c0 5.523-4.477 10-10 10-.011 3.866-3.154 6.991-7.02 6.98-3.131-.009-5.875-2.096-6.72-5.11-.415.084-.837.127-1.26.13-3.314-.001-5.999-2.688-5.998-6.002 0-1.128.319-2.233.918-3.188-1.236-1.296-1.924-3.019-1.92-4.81.002-1.502.486-2.963 1.38-4.17-2.104-2.56-1.735-6.341.824-8.445 2.403-1.976 5.918-1.787 8.096.435 2.854-2.597 7.273-2.39 9.87.464.942 1.035 1.552 2.33 1.75 3.716h.08c5.523 0 10 4.477 10 10z" fill="#57a4ff"/><path d="m28.291 55.954c-.009-.029-.023-.055-.031-.084-.086.017-.174.026-.26.04.1.016.193.033.291.044z" fill="#2488ff"/><path d="m44 34h-.08c-.516-3.795-4.011-6.453-7.806-5.937-.038.005-.076.011-.114.016 3.069.441 5.48 2.852 5.92 5.921h.08c5.523 0 10 4.477 10 10s-4.477 10-10 10c.001 3.471-2.546 6.417-5.981 6.918 3.774.588 7.31-1.994 7.899-5.768.059-.38.087-.765.082-1.15 5.523 0 10-4.477 10-10s-4.477-10-10-10z" fill="#2488ff"/><path d="m46 3h2v7h-2z" fill="#006df0"/><path d="m44.888 41h-1.888c1.111-.007 2.006-.914 1.999-2.025 0-.051-.003-.101-.007-.152-.129-1.058-1.039-1.846-2.104-1.823h-10.888c1.657 0 3-1.343 3-3v-1h-10.343c-1.061 0-2.079.422-2.829 1.172l-.656.656c-.75.75-1.768 1.172-2.829 1.172h-3.343v14h3.343c1.061 0 2.079.422 2.829 1.172l.656.656c.75.75 1.768 1.172 2.829 1.172h14.343c1.101-.008 1.992-.899 2-2-.003-1.103-.897-1.997-2-2h4c1.101-.008 1.992-.899 2-2-.003-1.103-.897-1.997-2-2h2c1.111-.007 2.006-.914 1.999-2.025 0-.051-.003-.101-.007-.152-.129-1.058-1.039-1.846-2.104-1.823z" fill="#ffbba9"/><path d="m54 27c-.341.003-.68.065-1 .184 1.555.542 2.377 2.242 1.835 3.797-.299.86-.975 1.535-1.835 1.835.32.119.659.181 1 .184 1.657 0 3-1.343 3-3s-1.343-3-3-3z" fill="#2488ff"/><circle cx="57" cy="57" fill="#2488ff" r="4"/><path d="m57 53c-.338.004-.674.052-1 .141 2.131.542 3.419 2.71 2.877 4.841-.36 1.413-1.463 2.517-2.877 2.877 2.135.556 4.316-.724 4.872-2.858s-.724-4.316-2.858-4.872c-.331-.086-.672-.13-1.014-.129z" fill="#207ae5"/><circle cx="59" cy="39" fill="#57a4ff" r="2"/><path d="m59 37c-.352.002-.697.098-1 .277.952.543 1.283 1.755.739 2.707-.176.308-.431.563-.739.739.952.561 2.178.244 2.738-.708.561-.952.244-2.178-.708-2.738-.311-.184-.668-.28-1.03-.277z" fill="#4e94e5"/><g fill="#ff9e84"><path d="m40.41 50.41c-.37.38-.879.593-1.41.59h-14.343c-1.061 0-2.079-.422-2.829-1.172l-.656-.656c-.75-.75-1.768-1.172-2.829-1.172h-3.343v2h3.343c1.061 0 2.079.422 2.829 1.172l.656.656c.75.75 1.768 1.172 2.829 1.172h14.343c1.096.009 1.992-.871 2.001-1.967.003-.363-.077-.724-.288-1.062-.085.15-.182.317-.303.439z"/><path d="m46.708 42c-.353.617-.996.999-1.708 1h-11c-.552 0-1 .448-1 1 0 .552.448 1 1 1h11c1.096.009 1.992-.871 2.001-1.967.003-.363-.107-.721-.293-1.033z"/><path d="m44.708 38c-.353.617-.996.999-1.708 1h-9c-.552 0-1 .448-1 1 0 .552.448 1 1 1h9c1.096.009 1.992-.871 2.001-1.967.003-.363-.107-.721-.293-1.033z"/><path d="m44.714 45.973c-.353.618-1.003 1.026-1.714 1.027h-9c-.552 0-1 .448-1 1 0 .552.448 1 1 1h9c1.096.009 1.992-.871 2.001-1.967.003-.363-.101-.747-.287-1.06z"/><path d="m29.9 35c-.483.007-.893.354-.981.829-.392 1.851-2.027 3.174-3.919 3.171-.552 0-1 .448-1 1 0 .552.448 1 1 1 2.209 0 4-1.791 4-4h3c1.268-.002 2.396-.765 2.834-2.013z"/></g><path d="m28 21h8c.552 0 1 .448 1 1v1c0 .552-.448 1-1 1h-8c-.552 0-1-.448-1-1v-1c0-.552.448-1 1-1z" fill="#ff5023"/><path d="m47 7c-1.573.002-3.055.742-4 2h-6c-4.418 0-8 3.582-8 8v4h6v-4c0-1.105.895-2 2-2h6c1.657 2.209 4.791 2.657 7 1 .379-.284.716-.621 1-1h10v-6h-10c-.945-1.258-2.427-1.998-4-2z" fill="#ab2300"/><path d="m11 34h4v18h-4z" fill="#ffcd00"/><path d="m11 32h-8v22h8v-2-18z" fill="#004fac"/><path d="m61 3c.552 0 1 .448 1 1v16c0 .552-.448 1-1 1-.552 0-1-.448-1-1v-16c0-.552.448-1 1-1z" fill="#004fac"/><path d="m43 2h8c.552 0 1 .448 1 1 0 .552-.448 1-1 1h-8c-.552 0-1-.448-1-1 0-.552.448-1 1-1z" fill="#005ece"/></g></svg>